%TF.GenerationSoftware,KiCad,Pcbnew,7.0.10*%
%TF.CreationDate,2024-01-18T13:18:40-08:00*%
%TF.ProjectId,Lab2,4c616232-2e6b-4696-9361-645f70636258,rev?*%
%TF.SameCoordinates,Original*%
%TF.FileFunction,Legend,Top*%
%TF.FilePolarity,Positive*%
%FSLAX46Y46*%
G04 Gerber Fmt 4.6, Leading zero omitted, Abs format (unit mm)*
G04 Created by KiCad (PCBNEW 7.0.10) date 2024-01-18 13:18:40*
%MOMM*%
%LPD*%
G01*
G04 APERTURE LIST*
%ADD10C,0.150000*%
%ADD11C,0.120000*%
G04 APERTURE END LIST*
D10*
X71980588Y-62417438D02*
X71885350Y-62369819D01*
X71885350Y-62369819D02*
X71742493Y-62369819D01*
X71742493Y-62369819D02*
X71599636Y-62417438D01*
X71599636Y-62417438D02*
X71504398Y-62512676D01*
X71504398Y-62512676D02*
X71456779Y-62607914D01*
X71456779Y-62607914D02*
X71409160Y-62798390D01*
X71409160Y-62798390D02*
X71409160Y-62941247D01*
X71409160Y-62941247D02*
X71456779Y-63131723D01*
X71456779Y-63131723D02*
X71504398Y-63226961D01*
X71504398Y-63226961D02*
X71599636Y-63322200D01*
X71599636Y-63322200D02*
X71742493Y-63369819D01*
X71742493Y-63369819D02*
X71837731Y-63369819D01*
X71837731Y-63369819D02*
X71980588Y-63322200D01*
X71980588Y-63322200D02*
X72028207Y-63274580D01*
X72028207Y-63274580D02*
X72028207Y-62941247D01*
X72028207Y-62941247D02*
X71837731Y-62941247D01*
X72599636Y-63369819D02*
X72504398Y-63322200D01*
X72504398Y-63322200D02*
X72456779Y-63226961D01*
X72456779Y-63226961D02*
X72456779Y-62369819D01*
X73361541Y-63322200D02*
X73266303Y-63369819D01*
X73266303Y-63369819D02*
X73075827Y-63369819D01*
X73075827Y-63369819D02*
X72980589Y-63322200D01*
X72980589Y-63322200D02*
X72932970Y-63226961D01*
X72932970Y-63226961D02*
X72932970Y-62846009D01*
X72932970Y-62846009D02*
X72980589Y-62750771D01*
X72980589Y-62750771D02*
X73075827Y-62703152D01*
X73075827Y-62703152D02*
X73266303Y-62703152D01*
X73266303Y-62703152D02*
X73361541Y-62750771D01*
X73361541Y-62750771D02*
X73409160Y-62846009D01*
X73409160Y-62846009D02*
X73409160Y-62941247D01*
X73409160Y-62941247D02*
X72932970Y-63036485D01*
X73837732Y-62703152D02*
X73837732Y-63369819D01*
X73837732Y-62798390D02*
X73885351Y-62750771D01*
X73885351Y-62750771D02*
X73980589Y-62703152D01*
X73980589Y-62703152D02*
X74123446Y-62703152D01*
X74123446Y-62703152D02*
X74218684Y-62750771D01*
X74218684Y-62750771D02*
X74266303Y-62846009D01*
X74266303Y-62846009D02*
X74266303Y-63369819D01*
X74742494Y-62703152D02*
X74742494Y-63369819D01*
X74742494Y-62798390D02*
X74790113Y-62750771D01*
X74790113Y-62750771D02*
X74885351Y-62703152D01*
X74885351Y-62703152D02*
X75028208Y-62703152D01*
X75028208Y-62703152D02*
X75123446Y-62750771D01*
X75123446Y-62750771D02*
X75171065Y-62846009D01*
X75171065Y-62846009D02*
X75171065Y-63369819D01*
X76313923Y-62369819D02*
X76552018Y-63369819D01*
X76552018Y-63369819D02*
X76742494Y-62655533D01*
X76742494Y-62655533D02*
X76932970Y-63369819D01*
X76932970Y-63369819D02*
X77171066Y-62369819D01*
X77552018Y-63369819D02*
X77552018Y-62703152D01*
X77552018Y-62369819D02*
X77504399Y-62417438D01*
X77504399Y-62417438D02*
X77552018Y-62465057D01*
X77552018Y-62465057D02*
X77599637Y-62417438D01*
X77599637Y-62417438D02*
X77552018Y-62369819D01*
X77552018Y-62369819D02*
X77552018Y-62465057D01*
X78171065Y-63369819D02*
X78075827Y-63322200D01*
X78075827Y-63322200D02*
X78028208Y-63226961D01*
X78028208Y-63226961D02*
X78028208Y-62369819D01*
X78694875Y-63369819D02*
X78599637Y-63322200D01*
X78599637Y-63322200D02*
X78552018Y-63226961D01*
X78552018Y-63226961D02*
X78552018Y-62369819D01*
X79075828Y-63369819D02*
X79075828Y-62703152D01*
X79075828Y-62369819D02*
X79028209Y-62417438D01*
X79028209Y-62417438D02*
X79075828Y-62465057D01*
X79075828Y-62465057D02*
X79123447Y-62417438D01*
X79123447Y-62417438D02*
X79075828Y-62369819D01*
X79075828Y-62369819D02*
X79075828Y-62465057D01*
X79980589Y-63369819D02*
X79980589Y-62846009D01*
X79980589Y-62846009D02*
X79932970Y-62750771D01*
X79932970Y-62750771D02*
X79837732Y-62703152D01*
X79837732Y-62703152D02*
X79647256Y-62703152D01*
X79647256Y-62703152D02*
X79552018Y-62750771D01*
X79980589Y-63322200D02*
X79885351Y-63369819D01*
X79885351Y-63369819D02*
X79647256Y-63369819D01*
X79647256Y-63369819D02*
X79552018Y-63322200D01*
X79552018Y-63322200D02*
X79504399Y-63226961D01*
X79504399Y-63226961D02*
X79504399Y-63131723D01*
X79504399Y-63131723D02*
X79552018Y-63036485D01*
X79552018Y-63036485D02*
X79647256Y-62988866D01*
X79647256Y-62988866D02*
X79885351Y-62988866D01*
X79885351Y-62988866D02*
X79980589Y-62941247D01*
X80456780Y-63369819D02*
X80456780Y-62703152D01*
X80456780Y-62798390D02*
X80504399Y-62750771D01*
X80504399Y-62750771D02*
X80599637Y-62703152D01*
X80599637Y-62703152D02*
X80742494Y-62703152D01*
X80742494Y-62703152D02*
X80837732Y-62750771D01*
X80837732Y-62750771D02*
X80885351Y-62846009D01*
X80885351Y-62846009D02*
X80885351Y-63369819D01*
X80885351Y-62846009D02*
X80932970Y-62750771D01*
X80932970Y-62750771D02*
X81028208Y-62703152D01*
X81028208Y-62703152D02*
X81171065Y-62703152D01*
X81171065Y-62703152D02*
X81266304Y-62750771D01*
X81266304Y-62750771D02*
X81313923Y-62846009D01*
X81313923Y-62846009D02*
X81313923Y-63369819D01*
X72898095Y-41774819D02*
X72898095Y-42584342D01*
X72898095Y-42584342D02*
X72945714Y-42679580D01*
X72945714Y-42679580D02*
X72993333Y-42727200D01*
X72993333Y-42727200D02*
X73088571Y-42774819D01*
X73088571Y-42774819D02*
X73279047Y-42774819D01*
X73279047Y-42774819D02*
X73374285Y-42727200D01*
X73374285Y-42727200D02*
X73421904Y-42679580D01*
X73421904Y-42679580D02*
X73469523Y-42584342D01*
X73469523Y-42584342D02*
X73469523Y-41774819D01*
X74469523Y-42774819D02*
X73898095Y-42774819D01*
X74183809Y-42774819D02*
X74183809Y-41774819D01*
X74183809Y-41774819D02*
X74088571Y-41917676D01*
X74088571Y-41917676D02*
X73993333Y-42012914D01*
X73993333Y-42012914D02*
X73898095Y-42060533D01*
X87566666Y-60754819D02*
X87233333Y-60278628D01*
X86995238Y-60754819D02*
X86995238Y-59754819D01*
X86995238Y-59754819D02*
X87376190Y-59754819D01*
X87376190Y-59754819D02*
X87471428Y-59802438D01*
X87471428Y-59802438D02*
X87519047Y-59850057D01*
X87519047Y-59850057D02*
X87566666Y-59945295D01*
X87566666Y-59945295D02*
X87566666Y-60088152D01*
X87566666Y-60088152D02*
X87519047Y-60183390D01*
X87519047Y-60183390D02*
X87471428Y-60231009D01*
X87471428Y-60231009D02*
X87376190Y-60278628D01*
X87376190Y-60278628D02*
X86995238Y-60278628D01*
X87995238Y-60231009D02*
X88328571Y-60231009D01*
X88471428Y-60754819D02*
X87995238Y-60754819D01*
X87995238Y-60754819D02*
X87995238Y-59754819D01*
X87995238Y-59754819D02*
X88471428Y-59754819D01*
X89233333Y-60231009D02*
X88900000Y-60231009D01*
X88900000Y-60754819D02*
X88900000Y-59754819D01*
X88900000Y-59754819D02*
X89376190Y-59754819D01*
X89900000Y-59754819D02*
X89900000Y-59992914D01*
X89661905Y-59897676D02*
X89900000Y-59992914D01*
X89900000Y-59992914D02*
X90138095Y-59897676D01*
X89757143Y-60183390D02*
X89900000Y-59992914D01*
X89900000Y-59992914D02*
X90042857Y-60183390D01*
X90661905Y-59754819D02*
X90661905Y-59992914D01*
X90423810Y-59897676D02*
X90661905Y-59992914D01*
X90661905Y-59992914D02*
X90900000Y-59897676D01*
X90519048Y-60183390D02*
X90661905Y-59992914D01*
X90661905Y-59992914D02*
X90804762Y-60183390D01*
X59626666Y-60754819D02*
X59293333Y-60278628D01*
X59055238Y-60754819D02*
X59055238Y-59754819D01*
X59055238Y-59754819D02*
X59436190Y-59754819D01*
X59436190Y-59754819D02*
X59531428Y-59802438D01*
X59531428Y-59802438D02*
X59579047Y-59850057D01*
X59579047Y-59850057D02*
X59626666Y-59945295D01*
X59626666Y-59945295D02*
X59626666Y-60088152D01*
X59626666Y-60088152D02*
X59579047Y-60183390D01*
X59579047Y-60183390D02*
X59531428Y-60231009D01*
X59531428Y-60231009D02*
X59436190Y-60278628D01*
X59436190Y-60278628D02*
X59055238Y-60278628D01*
X60055238Y-60231009D02*
X60388571Y-60231009D01*
X60531428Y-60754819D02*
X60055238Y-60754819D01*
X60055238Y-60754819D02*
X60055238Y-59754819D01*
X60055238Y-59754819D02*
X60531428Y-59754819D01*
X61293333Y-60231009D02*
X60960000Y-60231009D01*
X60960000Y-60754819D02*
X60960000Y-59754819D01*
X60960000Y-59754819D02*
X61436190Y-59754819D01*
X61960000Y-59754819D02*
X61960000Y-59992914D01*
X61721905Y-59897676D02*
X61960000Y-59992914D01*
X61960000Y-59992914D02*
X62198095Y-59897676D01*
X61817143Y-60183390D02*
X61960000Y-59992914D01*
X61960000Y-59992914D02*
X62102857Y-60183390D01*
X62721905Y-59754819D02*
X62721905Y-59992914D01*
X62483810Y-59897676D02*
X62721905Y-59992914D01*
X62721905Y-59992914D02*
X62960000Y-59897676D01*
X62579048Y-60183390D02*
X62721905Y-59992914D01*
X62721905Y-59992914D02*
X62864762Y-60183390D01*
X87566666Y-25194819D02*
X87233333Y-24718628D01*
X86995238Y-25194819D02*
X86995238Y-24194819D01*
X86995238Y-24194819D02*
X87376190Y-24194819D01*
X87376190Y-24194819D02*
X87471428Y-24242438D01*
X87471428Y-24242438D02*
X87519047Y-24290057D01*
X87519047Y-24290057D02*
X87566666Y-24385295D01*
X87566666Y-24385295D02*
X87566666Y-24528152D01*
X87566666Y-24528152D02*
X87519047Y-24623390D01*
X87519047Y-24623390D02*
X87471428Y-24671009D01*
X87471428Y-24671009D02*
X87376190Y-24718628D01*
X87376190Y-24718628D02*
X86995238Y-24718628D01*
X87995238Y-24671009D02*
X88328571Y-24671009D01*
X88471428Y-25194819D02*
X87995238Y-25194819D01*
X87995238Y-25194819D02*
X87995238Y-24194819D01*
X87995238Y-24194819D02*
X88471428Y-24194819D01*
X89233333Y-24671009D02*
X88900000Y-24671009D01*
X88900000Y-25194819D02*
X88900000Y-24194819D01*
X88900000Y-24194819D02*
X89376190Y-24194819D01*
X89900000Y-24194819D02*
X89900000Y-24432914D01*
X89661905Y-24337676D02*
X89900000Y-24432914D01*
X89900000Y-24432914D02*
X90138095Y-24337676D01*
X89757143Y-24623390D02*
X89900000Y-24432914D01*
X89900000Y-24432914D02*
X90042857Y-24623390D01*
X90661905Y-24194819D02*
X90661905Y-24432914D01*
X90423810Y-24337676D02*
X90661905Y-24432914D01*
X90661905Y-24432914D02*
X90900000Y-24337676D01*
X90519048Y-24623390D02*
X90661905Y-24432914D01*
X90661905Y-24432914D02*
X90804762Y-24623390D01*
X59626666Y-25194819D02*
X59293333Y-24718628D01*
X59055238Y-25194819D02*
X59055238Y-24194819D01*
X59055238Y-24194819D02*
X59436190Y-24194819D01*
X59436190Y-24194819D02*
X59531428Y-24242438D01*
X59531428Y-24242438D02*
X59579047Y-24290057D01*
X59579047Y-24290057D02*
X59626666Y-24385295D01*
X59626666Y-24385295D02*
X59626666Y-24528152D01*
X59626666Y-24528152D02*
X59579047Y-24623390D01*
X59579047Y-24623390D02*
X59531428Y-24671009D01*
X59531428Y-24671009D02*
X59436190Y-24718628D01*
X59436190Y-24718628D02*
X59055238Y-24718628D01*
X60055238Y-24671009D02*
X60388571Y-24671009D01*
X60531428Y-25194819D02*
X60055238Y-25194819D01*
X60055238Y-25194819D02*
X60055238Y-24194819D01*
X60055238Y-24194819D02*
X60531428Y-24194819D01*
X61293333Y-24671009D02*
X60960000Y-24671009D01*
X60960000Y-25194819D02*
X60960000Y-24194819D01*
X60960000Y-24194819D02*
X61436190Y-24194819D01*
X61960000Y-24194819D02*
X61960000Y-24432914D01*
X61721905Y-24337676D02*
X61960000Y-24432914D01*
X61960000Y-24432914D02*
X62198095Y-24337676D01*
X61817143Y-24623390D02*
X61960000Y-24432914D01*
X61960000Y-24432914D02*
X62102857Y-24623390D01*
X62721905Y-24194819D02*
X62721905Y-24432914D01*
X62483810Y-24337676D02*
X62721905Y-24432914D01*
X62721905Y-24432914D02*
X62960000Y-24337676D01*
X62579048Y-24623390D02*
X62721905Y-24432914D01*
X62721905Y-24432914D02*
X62864762Y-24623390D01*
X65301905Y-60694819D02*
X65301905Y-59694819D01*
X65301905Y-59694819D02*
X65540000Y-59694819D01*
X65540000Y-59694819D02*
X65682857Y-59742438D01*
X65682857Y-59742438D02*
X65778095Y-59837676D01*
X65778095Y-59837676D02*
X65825714Y-59932914D01*
X65825714Y-59932914D02*
X65873333Y-60123390D01*
X65873333Y-60123390D02*
X65873333Y-60266247D01*
X65873333Y-60266247D02*
X65825714Y-60456723D01*
X65825714Y-60456723D02*
X65778095Y-60551961D01*
X65778095Y-60551961D02*
X65682857Y-60647200D01*
X65682857Y-60647200D02*
X65540000Y-60694819D01*
X65540000Y-60694819D02*
X65301905Y-60694819D01*
X66254286Y-59790057D02*
X66301905Y-59742438D01*
X66301905Y-59742438D02*
X66397143Y-59694819D01*
X66397143Y-59694819D02*
X66635238Y-59694819D01*
X66635238Y-59694819D02*
X66730476Y-59742438D01*
X66730476Y-59742438D02*
X66778095Y-59790057D01*
X66778095Y-59790057D02*
X66825714Y-59885295D01*
X66825714Y-59885295D02*
X66825714Y-59980533D01*
X66825714Y-59980533D02*
X66778095Y-60123390D01*
X66778095Y-60123390D02*
X66206667Y-60694819D01*
X66206667Y-60694819D02*
X66825714Y-60694819D01*
X88464819Y-44346666D02*
X87988628Y-44679999D01*
X88464819Y-44918094D02*
X87464819Y-44918094D01*
X87464819Y-44918094D02*
X87464819Y-44537142D01*
X87464819Y-44537142D02*
X87512438Y-44441904D01*
X87512438Y-44441904D02*
X87560057Y-44394285D01*
X87560057Y-44394285D02*
X87655295Y-44346666D01*
X87655295Y-44346666D02*
X87798152Y-44346666D01*
X87798152Y-44346666D02*
X87893390Y-44394285D01*
X87893390Y-44394285D02*
X87941009Y-44441904D01*
X87941009Y-44441904D02*
X87988628Y-44537142D01*
X87988628Y-44537142D02*
X87988628Y-44918094D01*
X87560057Y-43965713D02*
X87512438Y-43918094D01*
X87512438Y-43918094D02*
X87464819Y-43822856D01*
X87464819Y-43822856D02*
X87464819Y-43584761D01*
X87464819Y-43584761D02*
X87512438Y-43489523D01*
X87512438Y-43489523D02*
X87560057Y-43441904D01*
X87560057Y-43441904D02*
X87655295Y-43394285D01*
X87655295Y-43394285D02*
X87750533Y-43394285D01*
X87750533Y-43394285D02*
X87893390Y-43441904D01*
X87893390Y-43441904D02*
X88464819Y-44013332D01*
X88464819Y-44013332D02*
X88464819Y-43394285D01*
X86924819Y-33186666D02*
X86448628Y-33519999D01*
X86924819Y-33758094D02*
X85924819Y-33758094D01*
X85924819Y-33758094D02*
X85924819Y-33377142D01*
X85924819Y-33377142D02*
X85972438Y-33281904D01*
X85972438Y-33281904D02*
X86020057Y-33234285D01*
X86020057Y-33234285D02*
X86115295Y-33186666D01*
X86115295Y-33186666D02*
X86258152Y-33186666D01*
X86258152Y-33186666D02*
X86353390Y-33234285D01*
X86353390Y-33234285D02*
X86401009Y-33281904D01*
X86401009Y-33281904D02*
X86448628Y-33377142D01*
X86448628Y-33377142D02*
X86448628Y-33758094D01*
X86924819Y-32234285D02*
X86924819Y-32805713D01*
X86924819Y-32519999D02*
X85924819Y-32519999D01*
X85924819Y-32519999D02*
X86067676Y-32615237D01*
X86067676Y-32615237D02*
X86162914Y-32710475D01*
X86162914Y-32710475D02*
X86210533Y-32805713D01*
X65604819Y-44346666D02*
X65128628Y-44679999D01*
X65604819Y-44918094D02*
X64604819Y-44918094D01*
X64604819Y-44918094D02*
X64604819Y-44537142D01*
X64604819Y-44537142D02*
X64652438Y-44441904D01*
X64652438Y-44441904D02*
X64700057Y-44394285D01*
X64700057Y-44394285D02*
X64795295Y-44346666D01*
X64795295Y-44346666D02*
X64938152Y-44346666D01*
X64938152Y-44346666D02*
X65033390Y-44394285D01*
X65033390Y-44394285D02*
X65081009Y-44441904D01*
X65081009Y-44441904D02*
X65128628Y-44537142D01*
X65128628Y-44537142D02*
X65128628Y-44918094D01*
X64604819Y-44013332D02*
X64604819Y-43394285D01*
X64604819Y-43394285D02*
X64985771Y-43727618D01*
X64985771Y-43727618D02*
X64985771Y-43584761D01*
X64985771Y-43584761D02*
X65033390Y-43489523D01*
X65033390Y-43489523D02*
X65081009Y-43441904D01*
X65081009Y-43441904D02*
X65176247Y-43394285D01*
X65176247Y-43394285D02*
X65414342Y-43394285D01*
X65414342Y-43394285D02*
X65509580Y-43441904D01*
X65509580Y-43441904D02*
X65557200Y-43489523D01*
X65557200Y-43489523D02*
X65604819Y-43584761D01*
X65604819Y-43584761D02*
X65604819Y-43870475D01*
X65604819Y-43870475D02*
X65557200Y-43965713D01*
X65557200Y-43965713D02*
X65509580Y-44013332D01*
X78239580Y-58586666D02*
X78287200Y-58634285D01*
X78287200Y-58634285D02*
X78334819Y-58777142D01*
X78334819Y-58777142D02*
X78334819Y-58872380D01*
X78334819Y-58872380D02*
X78287200Y-59015237D01*
X78287200Y-59015237D02*
X78191961Y-59110475D01*
X78191961Y-59110475D02*
X78096723Y-59158094D01*
X78096723Y-59158094D02*
X77906247Y-59205713D01*
X77906247Y-59205713D02*
X77763390Y-59205713D01*
X77763390Y-59205713D02*
X77572914Y-59158094D01*
X77572914Y-59158094D02*
X77477676Y-59110475D01*
X77477676Y-59110475D02*
X77382438Y-59015237D01*
X77382438Y-59015237D02*
X77334819Y-58872380D01*
X77334819Y-58872380D02*
X77334819Y-58777142D01*
X77334819Y-58777142D02*
X77382438Y-58634285D01*
X77382438Y-58634285D02*
X77430057Y-58586666D01*
X77430057Y-58205713D02*
X77382438Y-58158094D01*
X77382438Y-58158094D02*
X77334819Y-58062856D01*
X77334819Y-58062856D02*
X77334819Y-57824761D01*
X77334819Y-57824761D02*
X77382438Y-57729523D01*
X77382438Y-57729523D02*
X77430057Y-57681904D01*
X77430057Y-57681904D02*
X77525295Y-57634285D01*
X77525295Y-57634285D02*
X77620533Y-57634285D01*
X77620533Y-57634285D02*
X77763390Y-57681904D01*
X77763390Y-57681904D02*
X78334819Y-58253332D01*
X78334819Y-58253332D02*
X78334819Y-57634285D01*
X84755833Y-60529580D02*
X84708214Y-60577200D01*
X84708214Y-60577200D02*
X84565357Y-60624819D01*
X84565357Y-60624819D02*
X84470119Y-60624819D01*
X84470119Y-60624819D02*
X84327262Y-60577200D01*
X84327262Y-60577200D02*
X84232024Y-60481961D01*
X84232024Y-60481961D02*
X84184405Y-60386723D01*
X84184405Y-60386723D02*
X84136786Y-60196247D01*
X84136786Y-60196247D02*
X84136786Y-60053390D01*
X84136786Y-60053390D02*
X84184405Y-59862914D01*
X84184405Y-59862914D02*
X84232024Y-59767676D01*
X84232024Y-59767676D02*
X84327262Y-59672438D01*
X84327262Y-59672438D02*
X84470119Y-59624819D01*
X84470119Y-59624819D02*
X84565357Y-59624819D01*
X84565357Y-59624819D02*
X84708214Y-59672438D01*
X84708214Y-59672438D02*
X84755833Y-59720057D01*
X85708214Y-60624819D02*
X85136786Y-60624819D01*
X85422500Y-60624819D02*
X85422500Y-59624819D01*
X85422500Y-59624819D02*
X85327262Y-59767676D01*
X85327262Y-59767676D02*
X85232024Y-59862914D01*
X85232024Y-59862914D02*
X85136786Y-59910533D01*
X65604819Y-51966666D02*
X65128628Y-52299999D01*
X65604819Y-52538094D02*
X64604819Y-52538094D01*
X64604819Y-52538094D02*
X64604819Y-52157142D01*
X64604819Y-52157142D02*
X64652438Y-52061904D01*
X64652438Y-52061904D02*
X64700057Y-52014285D01*
X64700057Y-52014285D02*
X64795295Y-51966666D01*
X64795295Y-51966666D02*
X64938152Y-51966666D01*
X64938152Y-51966666D02*
X65033390Y-52014285D01*
X65033390Y-52014285D02*
X65081009Y-52061904D01*
X65081009Y-52061904D02*
X65128628Y-52157142D01*
X65128628Y-52157142D02*
X65128628Y-52538094D01*
X64938152Y-51109523D02*
X65604819Y-51109523D01*
X64557200Y-51347618D02*
X65271485Y-51585713D01*
X65271485Y-51585713D02*
X65271485Y-50966666D01*
X62134819Y-34810594D02*
X61134819Y-34810594D01*
X61134819Y-34810594D02*
X61134819Y-34572499D01*
X61134819Y-34572499D02*
X61182438Y-34429642D01*
X61182438Y-34429642D02*
X61277676Y-34334404D01*
X61277676Y-34334404D02*
X61372914Y-34286785D01*
X61372914Y-34286785D02*
X61563390Y-34239166D01*
X61563390Y-34239166D02*
X61706247Y-34239166D01*
X61706247Y-34239166D02*
X61896723Y-34286785D01*
X61896723Y-34286785D02*
X61991961Y-34334404D01*
X61991961Y-34334404D02*
X62087200Y-34429642D01*
X62087200Y-34429642D02*
X62134819Y-34572499D01*
X62134819Y-34572499D02*
X62134819Y-34810594D01*
X62134819Y-33286785D02*
X62134819Y-33858213D01*
X62134819Y-33572499D02*
X61134819Y-33572499D01*
X61134819Y-33572499D02*
X61277676Y-33667737D01*
X61277676Y-33667737D02*
X61372914Y-33762975D01*
X61372914Y-33762975D02*
X61420533Y-33858213D01*
X74576666Y-27114819D02*
X74576666Y-27829104D01*
X74576666Y-27829104D02*
X74529047Y-27971961D01*
X74529047Y-27971961D02*
X74433809Y-28067200D01*
X74433809Y-28067200D02*
X74290952Y-28114819D01*
X74290952Y-28114819D02*
X74195714Y-28114819D01*
X75576666Y-28114819D02*
X75005238Y-28114819D01*
X75290952Y-28114819D02*
X75290952Y-27114819D01*
X75290952Y-27114819D02*
X75195714Y-27257676D01*
X75195714Y-27257676D02*
X75100476Y-27352914D01*
X75100476Y-27352914D02*
X75005238Y-27400533D01*
D11*
%TO.C,U1*%
X73660000Y-43160000D02*
X70210000Y-43160000D01*
X73660000Y-43160000D02*
X75610000Y-43160000D01*
X73660000Y-48280000D02*
X71710000Y-48280000D01*
X73660000Y-48280000D02*
X75610000Y-48280000D01*
%TO.C,D2*%
X68500000Y-59555000D02*
X68500000Y-57285000D01*
X68500000Y-57285000D02*
X64440000Y-57285000D01*
X64440000Y-59555000D02*
X68500000Y-59555000D01*
%TO.C,R2*%
X85625000Y-43952936D02*
X85625000Y-44407064D01*
X87095000Y-43952936D02*
X87095000Y-44407064D01*
%TO.C,R1*%
X84085000Y-32792936D02*
X84085000Y-33247064D01*
X85555000Y-32792936D02*
X85555000Y-33247064D01*
%TO.C,R3*%
X64235000Y-43952936D02*
X64235000Y-44407064D01*
X62765000Y-43952936D02*
X62765000Y-44407064D01*
%TO.C,C2*%
X76935000Y-58158748D02*
X76935000Y-58681252D01*
X75465000Y-58158748D02*
X75465000Y-58681252D01*
%TO.C,C1*%
X83322500Y-59355000D02*
X87407500Y-59355000D01*
X87407500Y-57485000D02*
X83322500Y-57485000D01*
X87407500Y-59355000D02*
X87407500Y-57485000D01*
%TO.C,R4*%
X64235000Y-51572936D02*
X64235000Y-52027064D01*
X62765000Y-51572936D02*
X62765000Y-52027064D01*
%TO.C,D1*%
X62365000Y-36532500D02*
X64635000Y-36532500D01*
X64635000Y-36532500D02*
X64635000Y-32472500D01*
X62365000Y-32472500D02*
X62365000Y-36532500D01*
%TO.C,J1*%
X71050000Y-28750000D02*
X78770000Y-28750000D01*
X71050000Y-29970000D02*
X72270000Y-29970000D01*
X71050000Y-37170000D02*
X71050000Y-28750000D01*
X72270000Y-29970000D02*
X72270000Y-34970000D01*
X72270000Y-33970000D02*
X77550000Y-33970000D01*
X72270000Y-34970000D02*
X71050000Y-34970000D01*
X72270000Y-34970000D02*
X72270000Y-37170000D01*
X72270000Y-37170000D02*
X71050000Y-37170000D01*
X73340000Y-30550000D02*
X73660000Y-30470000D01*
X73340000Y-33970000D02*
X73340000Y-30550000D01*
X73360000Y-37660000D02*
X73960000Y-37660000D01*
X73660000Y-30470000D02*
X73980000Y-30550000D01*
X73660000Y-33970000D02*
X73340000Y-33970000D01*
X73660000Y-37060000D02*
X73360000Y-37660000D01*
X73960000Y-37660000D02*
X73660000Y-37060000D01*
X73980000Y-30550000D02*
X73980000Y-33970000D01*
X73980000Y-33970000D02*
X73660000Y-33970000D01*
X74830000Y-34970000D02*
X74990000Y-34970000D01*
X75840000Y-30550000D02*
X76160000Y-30470000D01*
X75840000Y-33970000D02*
X75840000Y-30550000D01*
X76160000Y-30470000D02*
X76480000Y-30550000D01*
X76160000Y-33970000D02*
X75840000Y-33970000D01*
X76480000Y-30550000D02*
X76480000Y-33970000D01*
X76480000Y-33970000D02*
X76160000Y-33970000D01*
X77550000Y-29970000D02*
X77550000Y-34970000D01*
X77550000Y-34970000D02*
X78770000Y-34970000D01*
X77550000Y-37170000D02*
X77550000Y-34970000D01*
X78770000Y-28750000D02*
X78770000Y-37170000D01*
X78770000Y-29970000D02*
X77550000Y-29970000D01*
X78770000Y-37170000D02*
X77550000Y-37170000D01*
%TD*%
M02*
